<mxfile host="app.diagrams.net" agent="Mozilla/5.0 (Windows NT 10.0; Win64; x64) AppleWebKit/537.36 (KHTML, like Gecko) Chrome/139.0.0.0 Safari/537.36 Edg/139.0.0.0" version="28.2.1">
  <diagram name="Page-1" id="oCdV6AftA0xOqmWGUbir">
    <mxGraphModel dx="1884" dy="570" grid="1" gridSize="10" guides="1" tooltips="1" connect="1" arrows="1" fold="1" page="1" pageScale="1" pageWidth="850" pageHeight="1100" math="0" shadow="0">
      <root>
        <mxCell id="0" />
        <mxCell id="1" parent="0" />
        <mxCell id="H-K8lQoIFdCgpRTtP1Ap-5" value="" style="rounded=0;whiteSpace=wrap;html=1;fillColor=none;dashed=1;" vertex="1" parent="1">
          <mxGeometry x="320" y="3080" width="760" height="600" as="geometry" />
        </mxCell>
        <mxCell id="H-K8lQoIFdCgpRTtP1Ap-24" value="" style="rounded=0;whiteSpace=wrap;html=1;fillColor=none;dashed=1;dashPattern=1 4;strokeWidth=2;" vertex="1" parent="1">
          <mxGeometry x="340" y="3400" width="720" height="260" as="geometry" />
        </mxCell>
        <mxCell id="H-K8lQoIFdCgpRTtP1Ap-11" value="" style="rounded=0;whiteSpace=wrap;html=1;fillColor=none;dashed=1;" vertex="1" parent="1">
          <mxGeometry x="600" y="3488" width="200" height="100" as="geometry" />
        </mxCell>
        <mxCell id="u4ihdpOaRvYE82nhLXIy-1" value="What is the Iterator Design Pattern?&#xa;&#xa;The Iterator Pattern is a behavioral design pattern that provides a way to access the elements of an aggregate object sequentially without exposing its underlying representation.&#xa;Key Points:&#xa;- Decouples the collection from the iteration logic.&#xa;- Makes it easy to traverse different data structures in a uniform way.&#xa;- Often used to implement custom collections.&#xa;&#xa;&#xa;Use Cases&#xa;&#xa;You should use the Iterator pattern when:&#xa;- You want to traverse a collection without exposing its internal structure.&#xa;- You need multiple or concurrent traversals of a collection.&#xa;- You want to provide a custom way to iterate (e.g., reverse, filtered, step-by-step)." style="text;whiteSpace=wrap;fontSize=14;" parent="1" vertex="1">
          <mxGeometry x="40" y="80" width="800" height="280" as="geometry" />
        </mxCell>
        <mxCell id="u4ihdpOaRvYE82nhLXIy-2" value="&lt;font style=&quot;font-size: 14px;&quot;&gt;Iterator&lt;/font&gt;" style="text;html=1;align=center;verticalAlign=middle;whiteSpace=wrap;rounded=0;" parent="1" vertex="1">
          <mxGeometry x="360" y="50" width="120" height="30" as="geometry" />
        </mxCell>
        <mxCell id="u4ihdpOaRvYE82nhLXIy-35" value="" style="shape=table;startSize=0;container=1;collapsible=0;childLayout=tableLayout;" parent="1" vertex="1">
          <mxGeometry x="40" y="400" width="760" height="200" as="geometry" />
        </mxCell>
        <mxCell id="u4ihdpOaRvYE82nhLXIy-36" value="" style="shape=tableRow;horizontal=0;startSize=0;swimlaneHead=0;swimlaneBody=0;strokeColor=inherit;top=0;left=0;bottom=0;right=0;collapsible=0;dropTarget=0;fillColor=none;points=[[0,0.5],[1,0.5]];portConstraint=eastwest;" parent="u4ihdpOaRvYE82nhLXIy-35" vertex="1">
          <mxGeometry width="760" height="40" as="geometry" />
        </mxCell>
        <mxCell id="u4ihdpOaRvYE82nhLXIy-37" value="&lt;font style=&quot;font-size: 14px;&quot;&gt;Use Case&lt;/font&gt;" style="shape=partialRectangle;html=1;whiteSpace=wrap;connectable=0;strokeColor=inherit;overflow=hidden;fillColor=none;top=0;left=0;bottom=0;right=0;pointerEvents=1;" parent="u4ihdpOaRvYE82nhLXIy-36" vertex="1">
          <mxGeometry width="380" height="40" as="geometry">
            <mxRectangle width="380" height="40" as="alternateBounds" />
          </mxGeometry>
        </mxCell>
        <mxCell id="u4ihdpOaRvYE82nhLXIy-38" value="&lt;font style=&quot;font-size: 14px;&quot;&gt;Description&lt;/font&gt;" style="shape=partialRectangle;html=1;whiteSpace=wrap;connectable=0;strokeColor=inherit;overflow=hidden;fillColor=none;top=0;left=0;bottom=0;right=0;pointerEvents=1;" parent="u4ihdpOaRvYE82nhLXIy-36" vertex="1">
          <mxGeometry x="380" width="380" height="40" as="geometry">
            <mxRectangle width="380" height="40" as="alternateBounds" />
          </mxGeometry>
        </mxCell>
        <mxCell id="u4ihdpOaRvYE82nhLXIy-39" value="" style="shape=tableRow;horizontal=0;startSize=0;swimlaneHead=0;swimlaneBody=0;strokeColor=inherit;top=0;left=0;bottom=0;right=0;collapsible=0;dropTarget=0;fillColor=none;points=[[0,0.5],[1,0.5]];portConstraint=eastwest;" parent="u4ihdpOaRvYE82nhLXIy-35" vertex="1">
          <mxGeometry y="40" width="760" height="40" as="geometry" />
        </mxCell>
        <mxCell id="u4ihdpOaRvYE82nhLXIy-40" value="Collections/Containers" style="shape=partialRectangle;html=1;whiteSpace=wrap;connectable=0;strokeColor=inherit;overflow=hidden;fillColor=none;top=0;left=0;bottom=0;right=0;pointerEvents=1;align=left;fontSize=14;" parent="u4ihdpOaRvYE82nhLXIy-39" vertex="1">
          <mxGeometry width="380" height="40" as="geometry">
            <mxRectangle width="380" height="40" as="alternateBounds" />
          </mxGeometry>
        </mxCell>
        <mxCell id="u4ihdpOaRvYE82nhLXIy-41" value="Lists, Trees, Hash Tables" style="shape=partialRectangle;html=1;whiteSpace=wrap;connectable=0;strokeColor=inherit;overflow=hidden;fillColor=none;top=0;left=0;bottom=0;right=0;pointerEvents=1;align=left;fontSize=14;" parent="u4ihdpOaRvYE82nhLXIy-39" vertex="1">
          <mxGeometry x="380" width="380" height="40" as="geometry">
            <mxRectangle width="380" height="40" as="alternateBounds" />
          </mxGeometry>
        </mxCell>
        <mxCell id="u4ihdpOaRvYE82nhLXIy-42" value="" style="shape=tableRow;horizontal=0;startSize=0;swimlaneHead=0;swimlaneBody=0;strokeColor=inherit;top=0;left=0;bottom=0;right=0;collapsible=0;dropTarget=0;fillColor=none;points=[[0,0.5],[1,0.5]];portConstraint=eastwest;" parent="u4ihdpOaRvYE82nhLXIy-35" vertex="1">
          <mxGeometry y="80" width="760" height="40" as="geometry" />
        </mxCell>
        <mxCell id="u4ihdpOaRvYE82nhLXIy-43" value="UI Components" style="shape=partialRectangle;html=1;whiteSpace=wrap;connectable=0;strokeColor=inherit;overflow=hidden;fillColor=none;top=0;left=0;bottom=0;right=0;pointerEvents=1;align=left;fontSize=14;" parent="u4ihdpOaRvYE82nhLXIy-42" vertex="1">
          <mxGeometry width="380" height="40" as="geometry">
            <mxRectangle width="380" height="40" as="alternateBounds" />
          </mxGeometry>
        </mxCell>
        <mxCell id="u4ihdpOaRvYE82nhLXIy-44" value="Iterating over components inside a window" style="shape=partialRectangle;html=1;whiteSpace=wrap;connectable=0;strokeColor=inherit;overflow=hidden;fillColor=none;top=0;left=0;bottom=0;right=0;pointerEvents=1;align=left;fontSize=14;" parent="u4ihdpOaRvYE82nhLXIy-42" vertex="1">
          <mxGeometry x="380" width="380" height="40" as="geometry">
            <mxRectangle width="380" height="40" as="alternateBounds" />
          </mxGeometry>
        </mxCell>
        <mxCell id="u4ihdpOaRvYE82nhLXIy-45" value="" style="shape=tableRow;horizontal=0;startSize=0;swimlaneHead=0;swimlaneBody=0;strokeColor=inherit;top=0;left=0;bottom=0;right=0;collapsible=0;dropTarget=0;fillColor=none;points=[[0,0.5],[1,0.5]];portConstraint=eastwest;" parent="u4ihdpOaRvYE82nhLXIy-35" vertex="1">
          <mxGeometry y="120" width="760" height="40" as="geometry" />
        </mxCell>
        <mxCell id="u4ihdpOaRvYE82nhLXIy-46" value="Files/Streams" style="shape=partialRectangle;html=1;whiteSpace=wrap;connectable=0;strokeColor=inherit;overflow=hidden;fillColor=none;top=0;left=0;bottom=0;right=0;pointerEvents=1;align=left;fontSize=14;" parent="u4ihdpOaRvYE82nhLXIy-45" vertex="1">
          <mxGeometry width="380" height="40" as="geometry">
            <mxRectangle width="380" height="40" as="alternateBounds" />
          </mxGeometry>
        </mxCell>
        <mxCell id="u4ihdpOaRvYE82nhLXIy-47" value="Reading lines from a file one by one" style="shape=partialRectangle;html=1;whiteSpace=wrap;connectable=0;strokeColor=inherit;overflow=hidden;fillColor=none;top=0;left=0;bottom=0;right=0;pointerEvents=1;align=left;fontSize=14;" parent="u4ihdpOaRvYE82nhLXIy-45" vertex="1">
          <mxGeometry x="380" width="380" height="40" as="geometry">
            <mxRectangle width="380" height="40" as="alternateBounds" />
          </mxGeometry>
        </mxCell>
        <mxCell id="u4ihdpOaRvYE82nhLXIy-48" value="" style="shape=tableRow;horizontal=0;startSize=0;swimlaneHead=0;swimlaneBody=0;strokeColor=inherit;top=0;left=0;bottom=0;right=0;collapsible=0;dropTarget=0;fillColor=none;points=[[0,0.5],[1,0.5]];portConstraint=eastwest;" parent="u4ihdpOaRvYE82nhLXIy-35" vertex="1">
          <mxGeometry y="160" width="760" height="40" as="geometry" />
        </mxCell>
        <mxCell id="u4ihdpOaRvYE82nhLXIy-49" value="Game development" style="shape=partialRectangle;html=1;whiteSpace=wrap;connectable=0;strokeColor=inherit;overflow=hidden;fillColor=none;top=0;left=0;bottom=0;right=0;pointerEvents=1;align=left;fontSize=14;" parent="u4ihdpOaRvYE82nhLXIy-48" vertex="1">
          <mxGeometry width="380" height="40" as="geometry">
            <mxRectangle width="380" height="40" as="alternateBounds" />
          </mxGeometry>
        </mxCell>
        <mxCell id="u4ihdpOaRvYE82nhLXIy-50" value="&lt;table&gt;&lt;tbody&gt;&lt;tr&gt;&lt;td data-col-size=&quot;sm&quot; data-end=&quot;1378&quot; data-start=&quot;1334&quot;&gt;&lt;/td&gt;&lt;/tr&gt;&lt;/tbody&gt;&lt;/table&gt;&lt;table&gt;&lt;tbody&gt;&lt;tr&gt;&lt;td data-col-size=&quot;md&quot; data-end=&quot;1430&quot; data-start=&quot;1378&quot;&gt;Looping through objects in a scene&lt;/td&gt;&lt;/tr&gt;&lt;/tbody&gt;&lt;/table&gt;" style="shape=partialRectangle;html=1;whiteSpace=wrap;connectable=0;strokeColor=inherit;overflow=hidden;fillColor=none;top=0;left=0;bottom=0;right=0;pointerEvents=1;align=left;fontSize=14;" parent="u4ihdpOaRvYE82nhLXIy-48" vertex="1">
          <mxGeometry x="380" width="380" height="40" as="geometry">
            <mxRectangle width="380" height="40" as="alternateBounds" />
          </mxGeometry>
        </mxCell>
        <mxCell id="u4ihdpOaRvYE82nhLXIy-51" value="Iterator&amp;lt;T&amp;gt;" style="swimlane;fontStyle=0;childLayout=stackLayout;horizontal=1;startSize=26;fillColor=none;horizontalStack=0;resizeParent=1;resizeParentMax=0;resizeLast=0;collapsible=1;marginBottom=0;whiteSpace=wrap;html=1;fontSize=14;" parent="1" vertex="1">
          <mxGeometry x="160" y="680" width="200" height="78" as="geometry" />
        </mxCell>
        <mxCell id="u4ihdpOaRvYE82nhLXIy-52" value="+ HasNext(): bool" style="text;strokeColor=none;fillColor=none;align=left;verticalAlign=top;spacingLeft=4;spacingRight=4;overflow=hidden;rotatable=0;points=[[0,0.5],[1,0.5]];portConstraint=eastwest;whiteSpace=wrap;html=1;fontSize=14;" parent="u4ihdpOaRvYE82nhLXIy-51" vertex="1">
          <mxGeometry y="26" width="200" height="26" as="geometry" />
        </mxCell>
        <mxCell id="u4ihdpOaRvYE82nhLXIy-53" value="+ Next(): T" style="text;strokeColor=none;fillColor=none;align=left;verticalAlign=top;spacingLeft=4;spacingRight=4;overflow=hidden;rotatable=0;points=[[0,0.5],[1,0.5]];portConstraint=eastwest;whiteSpace=wrap;html=1;fontSize=14;" parent="u4ihdpOaRvYE82nhLXIy-51" vertex="1">
          <mxGeometry y="52" width="200" height="26" as="geometry" />
        </mxCell>
        <mxCell id="u4ihdpOaRvYE82nhLXIy-55" value="&lt;font style=&quot;font-size: 14px;&quot;&gt;Aggregate&amp;lt;T&amp;gt;&lt;/font&gt;" style="swimlane;fontStyle=0;childLayout=stackLayout;horizontal=1;startSize=26;fillColor=none;horizontalStack=0;resizeParent=1;resizeParentMax=0;resizeLast=0;collapsible=1;marginBottom=0;whiteSpace=wrap;html=1;" parent="1" vertex="1">
          <mxGeometry x="440" y="680" width="240" height="52" as="geometry" />
        </mxCell>
        <mxCell id="u4ihdpOaRvYE82nhLXIy-56" value="&lt;font style=&quot;font-size: 14px;&quot;&gt;+ CreateIterator(): Collection&lt;/font&gt;" style="text;strokeColor=none;fillColor=none;align=left;verticalAlign=top;spacingLeft=4;spacingRight=4;overflow=hidden;rotatable=0;points=[[0,0.5],[1,0.5]];portConstraint=eastwest;whiteSpace=wrap;html=1;" parent="u4ihdpOaRvYE82nhLXIy-55" vertex="1">
          <mxGeometry y="26" width="240" height="26" as="geometry" />
        </mxCell>
        <mxCell id="u4ihdpOaRvYE82nhLXIy-59" value="Concrete Iterator&amp;lt;T&amp;gt;" style="swimlane;fontStyle=0;childLayout=stackLayout;horizontal=1;startSize=26;fillColor=none;horizontalStack=0;resizeParent=1;resizeParentMax=0;resizeLast=0;collapsible=1;marginBottom=0;whiteSpace=wrap;html=1;fontSize=14;" parent="1" vertex="1">
          <mxGeometry x="40" y="880" width="200" height="104" as="geometry" />
        </mxCell>
        <mxCell id="u4ihdpOaRvYE82nhLXIy-60" value="+ Index" style="text;strokeColor=none;fillColor=none;align=left;verticalAlign=top;spacingLeft=4;spacingRight=4;overflow=hidden;rotatable=0;points=[[0,0.5],[1,0.5]];portConstraint=eastwest;whiteSpace=wrap;html=1;fontSize=14;" parent="u4ihdpOaRvYE82nhLXIy-59" vertex="1">
          <mxGeometry y="26" width="200" height="26" as="geometry" />
        </mxCell>
        <mxCell id="u4ihdpOaRvYE82nhLXIy-61" value="+ HasNext: bool" style="text;strokeColor=none;fillColor=none;align=left;verticalAlign=top;spacingLeft=4;spacingRight=4;overflow=hidden;rotatable=0;points=[[0,0.5],[1,0.5]];portConstraint=eastwest;whiteSpace=wrap;html=1;fontSize=14;" parent="u4ihdpOaRvYE82nhLXIy-59" vertex="1">
          <mxGeometry y="52" width="200" height="26" as="geometry" />
        </mxCell>
        <mxCell id="u4ihdpOaRvYE82nhLXIy-62" value="+ Next: T" style="text;strokeColor=none;fillColor=none;align=left;verticalAlign=top;spacingLeft=4;spacingRight=4;overflow=hidden;rotatable=0;points=[[0,0.5],[1,0.5]];portConstraint=eastwest;whiteSpace=wrap;html=1;fontSize=14;" parent="u4ihdpOaRvYE82nhLXIy-59" vertex="1">
          <mxGeometry y="78" width="200" height="26" as="geometry" />
        </mxCell>
        <mxCell id="u4ihdpOaRvYE82nhLXIy-63" value="&lt;font style=&quot;font-size: 14px;&quot;&gt;Concrete Aggregate&amp;lt;T&amp;gt;&lt;/font&gt;" style="swimlane;fontStyle=0;childLayout=stackLayout;horizontal=1;startSize=26;fillColor=none;horizontalStack=0;resizeParent=1;resizeParentMax=0;resizeLast=0;collapsible=1;marginBottom=0;whiteSpace=wrap;html=1;" parent="1" vertex="1">
          <mxGeometry x="280" y="880" width="200" height="78" as="geometry" />
        </mxCell>
        <mxCell id="u4ihdpOaRvYE82nhLXIy-64" value="+ Items: List&amp;lt;T&amp;gt;" style="text;strokeColor=none;fillColor=none;align=left;verticalAlign=top;spacingLeft=4;spacingRight=4;overflow=hidden;rotatable=0;points=[[0,0.5],[1,0.5]];portConstraint=eastwest;whiteSpace=wrap;html=1;fontSize=14;" parent="u4ihdpOaRvYE82nhLXIy-63" vertex="1">
          <mxGeometry y="26" width="200" height="26" as="geometry" />
        </mxCell>
        <mxCell id="u4ihdpOaRvYE82nhLXIy-65" value="+ CreateIterator(): Collection" style="text;strokeColor=none;fillColor=none;align=left;verticalAlign=top;spacingLeft=4;spacingRight=4;overflow=hidden;rotatable=0;points=[[0,0.5],[1,0.5]];portConstraint=eastwest;whiteSpace=wrap;html=1;fontSize=14;" parent="u4ihdpOaRvYE82nhLXIy-63" vertex="1">
          <mxGeometry y="52" width="200" height="26" as="geometry" />
        </mxCell>
        <mxCell id="u4ihdpOaRvYE82nhLXIy-67" value="" style="endArrow=block;dashed=1;endFill=0;endSize=12;html=1;rounded=0;entryX=0.498;entryY=0.846;entryDx=0;entryDy=0;entryPerimeter=0;" parent="1" edge="1">
          <mxGeometry width="160" relative="1" as="geometry">
            <mxPoint x="130" y="884" as="sourcePoint" />
            <mxPoint x="259.5999999999999" y="757.9960000000001" as="targetPoint" />
            <Array as="points">
              <mxPoint x="130" y="800" />
              <mxPoint x="260" y="800" />
            </Array>
          </mxGeometry>
        </mxCell>
        <mxCell id="u4ihdpOaRvYE82nhLXIy-68" value="" style="endArrow=block;dashed=1;endFill=0;endSize=12;html=1;rounded=0;exitX=0.5;exitY=0;exitDx=0;exitDy=0;" parent="1" source="u4ihdpOaRvYE82nhLXIy-63" edge="1">
          <mxGeometry width="160" relative="1" as="geometry">
            <mxPoint x="350" y="790" as="sourcePoint" />
            <mxPoint x="260" y="760" as="targetPoint" />
            <Array as="points">
              <mxPoint x="380" y="800" />
              <mxPoint x="260" y="800" />
            </Array>
          </mxGeometry>
        </mxCell>
        <mxCell id="u4ihdpOaRvYE82nhLXIy-69" value="" style="endArrow=open;endFill=1;endSize=12;html=1;rounded=0;exitX=0.002;exitY=0.123;exitDx=0;exitDy=0;exitPerimeter=0;entryX=1.002;entryY=0.123;entryDx=0;entryDy=0;entryPerimeter=0;" parent="1" source="u4ihdpOaRvYE82nhLXIy-56" target="u4ihdpOaRvYE82nhLXIy-52" edge="1">
          <mxGeometry width="160" relative="1" as="geometry">
            <mxPoint x="350" y="790" as="sourcePoint" />
            <mxPoint x="510" y="790" as="targetPoint" />
          </mxGeometry>
        </mxCell>
        <mxCell id="u4ihdpOaRvYE82nhLXIy-70" value="Iterator&lt;T&gt; - The Iterator Interface &#xa;&#xa;What it is:&#xa;This defines the interface for iterating over elements in a collection.&#xa;&#xa;&#xa;Why we need it:&#xa;- To provide a standard way to move through elements (Next, HasNext, etc.)&#xa;- Allows different types of collections to be iterated in a consistent way.&#xa;&#xa;&#xa;Typical methods:&#xa;&#xa;public interface IIterator&lt;T&gt;&#xa;{&#xa;    bool HasNext();&#xa;    T Next();&#xa;}&#xa;&#xa;&#xa;Think of it as the remote control that knows how to walk through the collection." style="text;whiteSpace=wrap;fontSize=14;" parent="1" vertex="1">
          <mxGeometry x="40" y="1040" width="800" height="400" as="geometry" />
        </mxCell>
        <mxCell id="u4ihdpOaRvYE82nhLXIy-71" value="ConcreateIterator&lt;T&gt; -- The Concrete Implementation of the Iterator &#xa;&#xa;&#xa;What it is: A class that implements Iterator&lt;T&gt; and actually knows how to traverse a specific collection.&#xa;&#xa;&#xa;Why we need it:&#xa;- Holds current position and logic for traversing.&#xa;- Encapsulates traversal so the client doesn&#39;t need to know the structure (e.g., list vs tree vs graph).&#xa;&#xa;&#xa;Responsibilities:&#xa;- Stores the current index/position&#xa;- Accesss the underlying collection (often passed via constructor)&#xa;&#xa;&#xa;public class BookIterator : IIterator&lt;Book&gt; &#xa;{&#xa;    private readonly List&lt;Book&gt; _books;&#xa;    private int _position = 0; &#xa;    &#xa;    public BookIterator(List&lt;Book&gt; books) &#xa;    {&#xa;        _books = books;&#xa;    }&#xa;    &#xa;    public bool HasNext() =&gt; _position &lt; _books.Count;&#xa;    public Book Next() =&gt; _books[_position++];    &#xa;}&#xa;&#xa;&#xa;This is the actual mechanism that drives iteration forward." style="text;whiteSpace=wrap;fontSize=14;" parent="1" vertex="1">
          <mxGeometry x="40" y="1440" width="760" height="560" as="geometry" />
        </mxCell>
        <mxCell id="u4ihdpOaRvYE82nhLXIy-72" value="Aggregate&lt;T&gt; -- The Collection Interface (or Abstract Class)&#xa;&#xa;&#xa;What it is: Defines an interface for creating an iterator.&#xa;&#xa;&#xa;Why we need it: &#xa;- It ensures that any collection (aggregate) can return an iterator.&#xa;- It decouples collection structure from how we iterate over it.&#xa;&#xa;&#xa;Typical method:&#xa;&#xa;&#xa;public interface IAggregate&lt;T&gt; &#xa;{&#xa;    IIterator&lt;T&gt; CreateIterator();&#xa;}&#xa;&#xa;&#xa;Think of this as the container that knows how to give you a remote control (iterator)" style="text;whiteSpace=wrap;fontSize=14;" parent="1" vertex="1">
          <mxGeometry x="40" y="2040" width="760" height="360" as="geometry" />
        </mxCell>
        <mxCell id="u4ihdpOaRvYE82nhLXIy-73" value="ConcreteAggregate&lt;T&gt; – The Concrete Collection&#xa;&#xa;What it is: A concrete implementation of Aggregate&lt;T&gt;, holding the actual collection data (e.g., a list, array, tree).&#xa;&#xa;Why we need it: Holds the actual data.&#xa;&#xa;Implements CreateIterator() and returns a ConcreteIterator instance tied to its data.&#xa;&#xa;Example:&#xa;&#xa;public class BookCollection : IAggregate&lt;Book&gt;&#xa;{&#xa;    private readonly List&lt;Book&gt; _books = new();&#xa;&#xa;&#xa;    public void AddBook(Book book) =&gt; _books.Add(book);&#xa;&#xa;&#xa;    public IIterator&lt;Book&gt; CreateIterator()&#xa;    {&#xa;        return new BookIterator(_books);&#xa;    }&#xa;}&#xa;&#xa;������ This is your bookshelf that lets you get an iterator to go through books." style="text;whiteSpace=wrap;fontSize=14;" parent="1" vertex="1">
          <mxGeometry x="40" y="2440" width="800" height="440" as="geometry" />
        </mxCell>
        <mxCell id="H-K8lQoIFdCgpRTtP1Ap-1" value="" style="html=1;verticalLabelPosition=bottom;align=center;labelBackgroundColor=#ffffff;verticalAlign=top;strokeWidth=2;strokeColor=#0080F0;shadow=0;dashed=0;shape=mxgraph.ios7.icons.user;" vertex="1" parent="1">
          <mxGeometry x="-80" y="3350" width="50" height="50" as="geometry" />
        </mxCell>
        <mxCell id="H-K8lQoIFdCgpRTtP1Ap-2" value="Public IP Address - Dev" style="image;aspect=fixed;html=1;points=[];align=center;fontSize=12;image=img/lib/azure2/networking/Public_IP_Addresses.svg;" vertex="1" parent="1">
          <mxGeometry x="85" y="3210" width="37.5" height="30" as="geometry" />
        </mxCell>
        <mxCell id="H-K8lQoIFdCgpRTtP1Ap-3" value="Public IP Address - QA" style="image;aspect=fixed;html=1;points=[];align=center;fontSize=12;image=img/lib/azure2/networking/Public_IP_Addresses.svg;" vertex="1" parent="1">
          <mxGeometry x="85" y="3490" width="37.5" height="30" as="geometry" />
        </mxCell>
        <mxCell id="H-K8lQoIFdCgpRTtP1Ap-4" value="Public Load Balancer" style="image;sketch=0;aspect=fixed;html=1;points=[];align=center;fontSize=12;image=img/lib/mscae/Load_Balancer_feature.svg;" vertex="1" parent="1">
          <mxGeometry x="200" y="3355" width="50" height="50" as="geometry" />
        </mxCell>
        <mxCell id="H-K8lQoIFdCgpRTtP1Ap-6" value="" style="rounded=0;whiteSpace=wrap;html=1;fillColor=none;dashed=1;" vertex="1" parent="1">
          <mxGeometry x="360" y="3488" width="200" height="100" as="geometry" />
        </mxCell>
        <mxCell id="H-K8lQoIFdCgpRTtP1Ap-7" value="" style="aspect=fixed;sketch=0;html=1;dashed=0;whitespace=wrap;verticalLabelPosition=bottom;verticalAlign=top;fillColor=#2875E2;strokeColor=#ffffff;points=[[0.005,0.63,0],[0.1,0.2,0],[0.9,0.2,0],[0.5,0,0],[0.995,0.63,0],[0.72,0.99,0],[0.5,1,0],[0.28,0.99,0]];shape=mxgraph.kubernetes.icon2;prIcon=svc" vertex="1" parent="1">
          <mxGeometry x="370" y="3514" width="47.91" height="46" as="geometry" />
        </mxCell>
        <mxCell id="H-K8lQoIFdCgpRTtP1Ap-8" value="" style="aspect=fixed;sketch=0;html=1;dashed=0;whitespace=wrap;verticalLabelPosition=bottom;verticalAlign=top;fillColor=#2875E2;strokeColor=#ffffff;points=[[0.005,0.63,0],[0.1,0.2,0],[0.9,0.2,0],[0.5,0,0],[0.995,0.63,0],[0.72,0.99,0],[0.5,1,0],[0.28,0.99,0]];shape=mxgraph.kubernetes.icon2;kubernetesLabel=1;prIcon=pod" vertex="1" parent="1">
          <mxGeometry x="435" y="3512" width="50" height="48" as="geometry" />
        </mxCell>
        <mxCell id="H-K8lQoIFdCgpRTtP1Ap-9" value="" style="aspect=fixed;sketch=0;html=1;dashed=0;whitespace=wrap;verticalLabelPosition=bottom;verticalAlign=top;fillColor=#2875E2;strokeColor=#ffffff;points=[[0.005,0.63,0],[0.1,0.2,0],[0.9,0.2,0],[0.5,0,0],[0.995,0.63,0],[0.72,0.99,0],[0.5,1,0],[0.28,0.99,0]];shape=mxgraph.kubernetes.icon2;kubernetesLabel=1;prIcon=deploy" vertex="1" parent="1">
          <mxGeometry x="500" y="3514" width="50" height="48" as="geometry" />
        </mxCell>
        <mxCell id="H-K8lQoIFdCgpRTtP1Ap-10" value="" style="aspect=fixed;sketch=0;html=1;dashed=0;whitespace=wrap;verticalLabelPosition=bottom;verticalAlign=top;fillColor=#2875E2;strokeColor=#ffffff;points=[[0.005,0.63,0],[0.1,0.2,0],[0.9,0.2,0],[0.5,0,0],[0.995,0.63,0],[0.72,0.99,0],[0.5,1,0],[0.28,0.99,0]];shape=mxgraph.kubernetes.icon2;kubernetesLabel=1;prIcon=ing" vertex="1" parent="1">
          <mxGeometry x="625" y="3508" width="50" height="48" as="geometry" />
        </mxCell>
        <mxCell id="H-K8lQoIFdCgpRTtP1Ap-12" value="&lt;b&gt;&lt;font style=&quot;font-size: 14px;&quot;&gt;Ingress Controller&lt;/font&gt;&lt;/b&gt;" style="text;html=1;align=center;verticalAlign=middle;whiteSpace=wrap;rounded=0;" vertex="1" parent="1">
          <mxGeometry x="387.5" y="3488" width="145" height="30" as="geometry" />
        </mxCell>
        <mxCell id="H-K8lQoIFdCgpRTtP1Ap-13" value="&lt;b&gt;&lt;font style=&quot;font-size: 14px;&quot;&gt;Ingress Service&lt;/font&gt;&lt;/b&gt;" style="text;html=1;align=center;verticalAlign=middle;whiteSpace=wrap;rounded=0;" vertex="1" parent="1">
          <mxGeometry x="640" y="3484" width="110" height="30" as="geometry" />
        </mxCell>
        <mxCell id="H-K8lQoIFdCgpRTtP1Ap-14" value="" style="endArrow=classic;html=1;rounded=0;dashed=1;strokeWidth=1;" edge="1" parent="1">
          <mxGeometry width="50" height="50" relative="1" as="geometry">
            <mxPoint x="460" y="3558" as="sourcePoint" />
            <mxPoint x="650" y="3558" as="targetPoint" />
            <Array as="points">
              <mxPoint x="460" y="3598" />
              <mxPoint x="650" y="3598" />
            </Array>
          </mxGeometry>
        </mxCell>
        <mxCell id="H-K8lQoIFdCgpRTtP1Ap-15" value="&lt;font style=&quot;font-size: 14px;&quot;&gt;&lt;b&gt;/&lt;/b&gt;&lt;/font&gt;" style="rounded=0;whiteSpace=wrap;html=1;" vertex="1" parent="1">
          <mxGeometry x="710" y="3522" width="60" height="30" as="geometry" />
        </mxCell>
        <mxCell id="H-K8lQoIFdCgpRTtP1Ap-16" value="" style="endArrow=classic;html=1;rounded=0;exitX=0.995;exitY=0.63;exitDx=0;exitDy=0;exitPerimeter=0;entryX=0;entryY=0.5;entryDx=0;entryDy=0;dashed=1;" edge="1" parent="1" source="H-K8lQoIFdCgpRTtP1Ap-10" target="H-K8lQoIFdCgpRTtP1Ap-15">
          <mxGeometry width="50" height="50" relative="1" as="geometry">
            <mxPoint x="673" y="3485" as="sourcePoint" />
            <mxPoint x="723" y="3435" as="targetPoint" />
          </mxGeometry>
        </mxCell>
        <mxCell id="H-K8lQoIFdCgpRTtP1Ap-17" value="&lt;font style=&quot;font-size: 14px;&quot;&gt;Azure Kubernetes&lt;/font&gt;" style="text;html=1;align=center;verticalAlign=middle;whiteSpace=wrap;rounded=0;" vertex="1" parent="1">
          <mxGeometry x="320" y="3080" width="120" height="30" as="geometry" />
        </mxCell>
        <mxCell id="H-K8lQoIFdCgpRTtP1Ap-18" value="&lt;font style=&quot;font-size: 14px;&quot;&gt;Index-Worker&lt;/font&gt;" style="rounded=0;whiteSpace=wrap;html=1;" vertex="1" parent="1">
          <mxGeometry x="880" y="3440" width="160" height="40" as="geometry" />
        </mxCell>
        <mxCell id="H-K8lQoIFdCgpRTtP1Ap-19" value="&lt;font style=&quot;font-size: 14px;&quot;&gt;Index-Worker-Neo&lt;/font&gt;" style="rounded=0;whiteSpace=wrap;html=1;" vertex="1" parent="1">
          <mxGeometry x="880" y="3520" width="160" height="40" as="geometry" />
        </mxCell>
        <mxCell id="H-K8lQoIFdCgpRTtP1Ap-20" value="&lt;font style=&quot;font-size: 14px;&quot;&gt;Frontend&lt;/font&gt;" style="rounded=0;whiteSpace=wrap;html=1;" vertex="1" parent="1">
          <mxGeometry x="880" y="3600" width="160" height="40" as="geometry" />
        </mxCell>
        <mxCell id="H-K8lQoIFdCgpRTtP1Ap-21" value="" style="endArrow=classic;html=1;rounded=0;entryX=0;entryY=0.5;entryDx=0;entryDy=0;exitX=0.75;exitY=0;exitDx=0;exitDy=0;dashed=1;" edge="1" parent="1" source="H-K8lQoIFdCgpRTtP1Ap-15" target="H-K8lQoIFdCgpRTtP1Ap-18">
          <mxGeometry width="50" height="50" relative="1" as="geometry">
            <mxPoint x="770" y="3522" as="sourcePoint" />
            <mxPoint x="820" y="3472" as="targetPoint" />
            <Array as="points">
              <mxPoint x="755" y="3460" />
            </Array>
          </mxGeometry>
        </mxCell>
        <mxCell id="H-K8lQoIFdCgpRTtP1Ap-22" value="" style="endArrow=classic;html=1;rounded=0;entryX=0;entryY=0.5;entryDx=0;entryDy=0;dashed=1;" edge="1" parent="1" target="H-K8lQoIFdCgpRTtP1Ap-19">
          <mxGeometry width="50" height="50" relative="1" as="geometry">
            <mxPoint x="770" y="3540" as="sourcePoint" />
            <mxPoint x="820" y="3490" as="targetPoint" />
          </mxGeometry>
        </mxCell>
        <mxCell id="H-K8lQoIFdCgpRTtP1Ap-23" value="" style="endArrow=classic;html=1;rounded=0;entryX=0;entryY=0.5;entryDx=0;entryDy=0;dashed=1;exitX=0.75;exitY=1;exitDx=0;exitDy=0;" edge="1" parent="1" source="H-K8lQoIFdCgpRTtP1Ap-15">
          <mxGeometry width="50" height="50" relative="1" as="geometry">
            <mxPoint x="770" y="3619.5" as="sourcePoint" />
            <mxPoint x="880" y="3619.5" as="targetPoint" />
            <Array as="points">
              <mxPoint x="755" y="3620" />
            </Array>
          </mxGeometry>
        </mxCell>
        <mxCell id="H-K8lQoIFdCgpRTtP1Ap-25" value="&lt;font style=&quot;font-size: 14px;&quot;&gt;&lt;b&gt;Dev Namespace&lt;/b&gt;&lt;/font&gt;" style="text;html=1;align=center;verticalAlign=middle;whiteSpace=wrap;rounded=0;" vertex="1" parent="1">
          <mxGeometry x="340" y="3400" width="140" height="30" as="geometry" />
        </mxCell>
        <mxCell id="H-K8lQoIFdCgpRTtP1Ap-28" value="" style="rounded=0;whiteSpace=wrap;html=1;fillColor=none;dashed=1;dashPattern=1 4;strokeWidth=2;" vertex="1" parent="1">
          <mxGeometry x="340" y="3120" width="720" height="260" as="geometry" />
        </mxCell>
        <mxCell id="H-K8lQoIFdCgpRTtP1Ap-29" value="&lt;font style=&quot;font-size: 14px;&quot;&gt;&lt;b&gt;QA Namespace&lt;/b&gt;&lt;/font&gt;" style="text;html=1;align=center;verticalAlign=middle;whiteSpace=wrap;rounded=0;" vertex="1" parent="1">
          <mxGeometry x="340" y="3120" width="140" height="30" as="geometry" />
        </mxCell>
        <mxCell id="H-K8lQoIFdCgpRTtP1Ap-30" value="" style="rounded=0;whiteSpace=wrap;html=1;fillColor=none;dashed=1;" vertex="1" parent="1">
          <mxGeometry x="360" y="3200" width="200" height="100" as="geometry" />
        </mxCell>
        <mxCell id="H-K8lQoIFdCgpRTtP1Ap-31" value="" style="aspect=fixed;sketch=0;html=1;dashed=0;whitespace=wrap;verticalLabelPosition=bottom;verticalAlign=top;fillColor=#2875E2;strokeColor=#ffffff;points=[[0.005,0.63,0],[0.1,0.2,0],[0.9,0.2,0],[0.5,0,0],[0.995,0.63,0],[0.72,0.99,0],[0.5,1,0],[0.28,0.99,0]];shape=mxgraph.kubernetes.icon2;prIcon=svc" vertex="1" parent="1">
          <mxGeometry x="370" y="3226" width="47.91" height="46" as="geometry" />
        </mxCell>
        <mxCell id="H-K8lQoIFdCgpRTtP1Ap-32" value="" style="aspect=fixed;sketch=0;html=1;dashed=0;whitespace=wrap;verticalLabelPosition=bottom;verticalAlign=top;fillColor=#2875E2;strokeColor=#ffffff;points=[[0.005,0.63,0],[0.1,0.2,0],[0.9,0.2,0],[0.5,0,0],[0.995,0.63,0],[0.72,0.99,0],[0.5,1,0],[0.28,0.99,0]];shape=mxgraph.kubernetes.icon2;kubernetesLabel=1;prIcon=pod" vertex="1" parent="1">
          <mxGeometry x="435" y="3224" width="50" height="48" as="geometry" />
        </mxCell>
        <mxCell id="H-K8lQoIFdCgpRTtP1Ap-33" value="" style="aspect=fixed;sketch=0;html=1;dashed=0;whitespace=wrap;verticalLabelPosition=bottom;verticalAlign=top;fillColor=#2875E2;strokeColor=#ffffff;points=[[0.005,0.63,0],[0.1,0.2,0],[0.9,0.2,0],[0.5,0,0],[0.995,0.63,0],[0.72,0.99,0],[0.5,1,0],[0.28,0.99,0]];shape=mxgraph.kubernetes.icon2;kubernetesLabel=1;prIcon=deploy" vertex="1" parent="1">
          <mxGeometry x="500" y="3226" width="50" height="48" as="geometry" />
        </mxCell>
        <mxCell id="H-K8lQoIFdCgpRTtP1Ap-34" value="&lt;b&gt;&lt;font style=&quot;font-size: 14px;&quot;&gt;Ingress Controller&lt;/font&gt;&lt;/b&gt;" style="text;html=1;align=center;verticalAlign=middle;whiteSpace=wrap;rounded=0;" vertex="1" parent="1">
          <mxGeometry x="387.5" y="3200" width="145" height="30" as="geometry" />
        </mxCell>
        <mxCell id="H-K8lQoIFdCgpRTtP1Ap-35" value="" style="rounded=0;whiteSpace=wrap;html=1;fillColor=none;dashed=1;" vertex="1" parent="1">
          <mxGeometry x="600" y="3200" width="200" height="100" as="geometry" />
        </mxCell>
        <mxCell id="H-K8lQoIFdCgpRTtP1Ap-36" value="" style="aspect=fixed;sketch=0;html=1;dashed=0;whitespace=wrap;verticalLabelPosition=bottom;verticalAlign=top;fillColor=#2875E2;strokeColor=#ffffff;points=[[0.005,0.63,0],[0.1,0.2,0],[0.9,0.2,0],[0.5,0,0],[0.995,0.63,0],[0.72,0.99,0],[0.5,1,0],[0.28,0.99,0]];shape=mxgraph.kubernetes.icon2;kubernetesLabel=1;prIcon=ing" vertex="1" parent="1">
          <mxGeometry x="625" y="3220" width="50" height="48" as="geometry" />
        </mxCell>
        <mxCell id="H-K8lQoIFdCgpRTtP1Ap-37" value="&lt;b&gt;&lt;font style=&quot;font-size: 14px;&quot;&gt;Ingress Service&lt;/font&gt;&lt;/b&gt;" style="text;html=1;align=center;verticalAlign=middle;whiteSpace=wrap;rounded=0;" vertex="1" parent="1">
          <mxGeometry x="640" y="3196" width="110" height="30" as="geometry" />
        </mxCell>
        <mxCell id="H-K8lQoIFdCgpRTtP1Ap-38" value="&lt;font style=&quot;font-size: 14px;&quot;&gt;&lt;b&gt;/&lt;/b&gt;&lt;/font&gt;" style="rounded=0;whiteSpace=wrap;html=1;" vertex="1" parent="1">
          <mxGeometry x="710" y="3234" width="60" height="30" as="geometry" />
        </mxCell>
        <mxCell id="H-K8lQoIFdCgpRTtP1Ap-39" value="" style="endArrow=classic;html=1;rounded=0;exitX=0.995;exitY=0.63;exitDx=0;exitDy=0;exitPerimeter=0;entryX=0;entryY=0.5;entryDx=0;entryDy=0;dashed=1;" edge="1" parent="1" source="H-K8lQoIFdCgpRTtP1Ap-36" target="H-K8lQoIFdCgpRTtP1Ap-38">
          <mxGeometry width="50" height="50" relative="1" as="geometry">
            <mxPoint x="673" y="3197" as="sourcePoint" />
            <mxPoint x="723" y="3147" as="targetPoint" />
          </mxGeometry>
        </mxCell>
        <mxCell id="H-K8lQoIFdCgpRTtP1Ap-40" value="&lt;font style=&quot;font-size: 14px;&quot;&gt;Index-Worker&lt;/font&gt;" style="rounded=0;whiteSpace=wrap;html=1;" vertex="1" parent="1">
          <mxGeometry x="880" y="3156" width="160" height="40" as="geometry" />
        </mxCell>
        <mxCell id="H-K8lQoIFdCgpRTtP1Ap-41" value="&lt;font style=&quot;font-size: 14px;&quot;&gt;Index-Worker-Neo&lt;/font&gt;" style="rounded=0;whiteSpace=wrap;html=1;" vertex="1" parent="1">
          <mxGeometry x="880" y="3228" width="160" height="40" as="geometry" />
        </mxCell>
        <mxCell id="H-K8lQoIFdCgpRTtP1Ap-42" value="&lt;font style=&quot;font-size: 14px;&quot;&gt;Frontend&lt;/font&gt;" style="rounded=0;whiteSpace=wrap;html=1;" vertex="1" parent="1">
          <mxGeometry x="880" y="3300" width="160" height="40" as="geometry" />
        </mxCell>
        <mxCell id="H-K8lQoIFdCgpRTtP1Ap-43" value="" style="endArrow=classic;html=1;rounded=0;dashed=1;strokeWidth=1;" edge="1" parent="1">
          <mxGeometry width="50" height="50" relative="1" as="geometry">
            <mxPoint x="460" y="3268" as="sourcePoint" />
            <mxPoint x="650" y="3268" as="targetPoint" />
            <Array as="points">
              <mxPoint x="460" y="3308" />
              <mxPoint x="650" y="3308" />
            </Array>
          </mxGeometry>
        </mxCell>
        <mxCell id="H-K8lQoIFdCgpRTtP1Ap-44" value="" style="endArrow=classic;html=1;rounded=0;entryX=0;entryY=0.5;entryDx=0;entryDy=0;exitX=0.75;exitY=0;exitDx=0;exitDy=0;dashed=1;" edge="1" parent="1" target="H-K8lQoIFdCgpRTtP1Ap-40">
          <mxGeometry width="50" height="50" relative="1" as="geometry">
            <mxPoint x="760" y="3234" as="sourcePoint" />
            <mxPoint x="885" y="3172" as="targetPoint" />
            <Array as="points">
              <mxPoint x="760" y="3176" />
            </Array>
          </mxGeometry>
        </mxCell>
        <mxCell id="H-K8lQoIFdCgpRTtP1Ap-45" value="" style="endArrow=classic;html=1;rounded=0;entryX=0;entryY=0.5;entryDx=0;entryDy=0;dashed=1;" edge="1" parent="1">
          <mxGeometry width="50" height="50" relative="1" as="geometry">
            <mxPoint x="770" y="3247.5" as="sourcePoint" />
            <mxPoint x="880" y="3247.5" as="targetPoint" />
          </mxGeometry>
        </mxCell>
        <mxCell id="H-K8lQoIFdCgpRTtP1Ap-46" value="" style="endArrow=classic;html=1;rounded=0;entryX=0;entryY=0.5;entryDx=0;entryDy=0;dashed=1;exitX=0.75;exitY=1;exitDx=0;exitDy=0;" edge="1" parent="1" target="H-K8lQoIFdCgpRTtP1Ap-42">
          <mxGeometry width="50" height="50" relative="1" as="geometry">
            <mxPoint x="760" y="3264" as="sourcePoint" />
            <mxPoint x="885" y="3331.5" as="targetPoint" />
            <Array as="points">
              <mxPoint x="760" y="3320" />
            </Array>
          </mxGeometry>
        </mxCell>
        <mxCell id="H-K8lQoIFdCgpRTtP1Ap-47" value="" style="endArrow=classic;html=1;rounded=0;exitX=0.576;exitY=-0.032;exitDx=0;exitDy=0;exitPerimeter=0;dashed=1;" edge="1" parent="1" source="H-K8lQoIFdCgpRTtP1Ap-1">
          <mxGeometry width="50" height="50" relative="1" as="geometry">
            <mxPoint x="-30" y="3360" as="sourcePoint" />
            <mxPoint x="80" y="3230" as="targetPoint" />
            <Array as="points">
              <mxPoint x="-51" y="3230" />
            </Array>
          </mxGeometry>
        </mxCell>
        <mxCell id="H-K8lQoIFdCgpRTtP1Ap-48" value="" style="endArrow=classic;html=1;rounded=0;exitX=0.512;exitY=1.072;exitDx=0;exitDy=0;exitPerimeter=0;dashed=1;" edge="1" parent="1" source="H-K8lQoIFdCgpRTtP1Ap-1">
          <mxGeometry width="50" height="50" relative="1" as="geometry">
            <mxPoint x="-40" y="3420" as="sourcePoint" />
            <mxPoint x="80" y="3510" as="targetPoint" />
            <Array as="points">
              <mxPoint x="-54" y="3510" />
            </Array>
          </mxGeometry>
        </mxCell>
        <mxCell id="H-K8lQoIFdCgpRTtP1Ap-49" value="" style="endArrow=classic;html=1;rounded=0;dashed=1;" edge="1" parent="1">
          <mxGeometry width="50" height="50" relative="1" as="geometry">
            <mxPoint x="122.5" y="3230" as="sourcePoint" />
            <mxPoint x="225" y="3350" as="targetPoint" />
            <Array as="points">
              <mxPoint x="225" y="3230" />
            </Array>
          </mxGeometry>
        </mxCell>
        <mxCell id="H-K8lQoIFdCgpRTtP1Ap-50" value="" style="endArrow=classic;html=1;rounded=0;dashed=1;" edge="1" parent="1" target="H-K8lQoIFdCgpRTtP1Ap-4">
          <mxGeometry width="50" height="50" relative="1" as="geometry">
            <mxPoint x="122.5" y="3508" as="sourcePoint" />
            <mxPoint x="220" y="3430" as="targetPoint" />
            <Array as="points">
              <mxPoint x="225" y="3508" />
            </Array>
          </mxGeometry>
        </mxCell>
        <mxCell id="H-K8lQoIFdCgpRTtP1Ap-51" value="" style="endArrow=classic;html=1;rounded=0;entryX=0.005;entryY=0.63;entryDx=0;entryDy=0;entryPerimeter=0;dashed=1;" edge="1" parent="1" target="H-K8lQoIFdCgpRTtP1Ap-31">
          <mxGeometry width="50" height="50" relative="1" as="geometry">
            <mxPoint x="250" y="3380" as="sourcePoint" />
            <mxPoint x="300" y="3330" as="targetPoint" />
            <Array as="points">
              <mxPoint x="280" y="3380" />
              <mxPoint x="280" y="3255" />
            </Array>
          </mxGeometry>
        </mxCell>
        <mxCell id="H-K8lQoIFdCgpRTtP1Ap-53" value="" style="endArrow=classic;html=1;rounded=0;entryX=0.005;entryY=0.63;entryDx=0;entryDy=0;entryPerimeter=0;dashed=1;" edge="1" parent="1" target="H-K8lQoIFdCgpRTtP1Ap-7">
          <mxGeometry width="50" height="50" relative="1" as="geometry">
            <mxPoint x="280" y="3380" as="sourcePoint" />
            <mxPoint x="330" y="3330" as="targetPoint" />
            <Array as="points">
              <mxPoint x="280" y="3543" />
            </Array>
          </mxGeometry>
        </mxCell>
      </root>
    </mxGraphModel>
  </diagram>
</mxfile>
